<svg width="100" height="100" viewBox="0 0 100 100" fill="none" xmlns="http://www.w3.org/2000/svg">
<path d="M79.375 20.4583C75.555 16.5996 71.0049 13.5402 65.9902 11.4585C60.9754 9.37673 55.5963 8.31434 50.1667 8.33326C27.4167 8.33326 8.87499 26.8749 8.87499 49.6249C8.87499 56.9166 10.7917 63.9999 14.375 70.2499L8.54166 91.6666L30.4167 85.9166C36.4583 89.2083 43.25 90.9583 50.1667 90.9583C72.9167 90.9583 91.4583 72.4166 91.4583 49.6666C91.4583 38.6249 87.1667 28.2499 79.375 20.4583ZM50.1667 83.9583C44 83.9583 37.9583 82.2916 32.6667 79.1666L31.4167 78.4166L18.4167 81.8333L21.875 69.1666L21.0417 67.8749C17.6156 62.404 15.7964 56.0801 15.7917 49.6249C15.7917 30.7083 31.2083 15.2916 50.125 15.2916C59.2917 15.2916 67.9167 18.8749 74.375 25.3749C77.5728 28.5581 80.1071 32.3443 81.8308 36.5142C83.5545 40.684 84.4335 45.1545 84.4167 49.6666C84.5 68.5833 69.0833 83.9583 50.1667 83.9583ZM69 58.2916C67.9583 57.7916 62.875 55.2916 61.9583 54.9166C61 54.5833 60.3333 54.4166 59.625 55.4166C58.9167 56.4583 56.9583 58.7916 56.375 59.4583C55.7917 60.1666 55.1667 60.2499 54.125 59.7083C53.0833 59.2083 49.75 58.0833 45.8333 54.5833C42.75 51.8333 40.7083 48.4583 40.0833 47.4166C39.5 46.3749 40 45.8333 40.5417 45.2916C41 44.8333 41.5833 44.0833 42.0833 43.4999C42.5833 42.9166 42.7917 42.4583 43.125 41.7916C43.4583 41.0833 43.2917 40.4999 43.0417 39.9999C42.7917 39.4999 40.7083 34.4166 39.875 32.3333C39.0417 30.3333 38.1667 30.5833 37.5417 30.5416H35.5417C34.8333 30.5416 33.75 30.7916 32.7917 31.8333C31.875 32.8749 29.2083 35.3749 29.2083 40.4583C29.2083 45.5416 32.9167 50.4583 33.4167 51.1249C33.9167 51.8333 40.7083 62.2499 51.0417 66.7083C53.5 67.7916 55.4167 68.4166 56.9167 68.8749C59.375 69.6666 61.625 69.5416 63.4167 69.2916C65.4167 68.9999 69.5417 66.7916 70.375 64.3749C71.25 61.9583 71.25 59.9166 70.9583 59.4583C70.6667 58.9999 70.0417 58.7916 69 58.2916Z" fill="white"/>
</svg>
